<svg width="32" height="32" fill="none" xmlns="http://www.w3.org/2000/svg">
  <path d="M16 10.667A5.332 5.332 0 0 0 10.666 16 5.332 5.332 0 0 0 16 21.333 5.332 5.332 0 0 0 21.333 16 5.332 5.332 0 0 0 16 10.667Zm11.92 4A11.992 11.992 0 0 0 17.333 4.08V2.667c0-.734-.6-1.334-1.333-1.334-.734 0-1.334.6-1.334 1.334V4.08A11.992 11.992 0 0 0 4.08 14.667H2.666c-.733 0-1.333.6-1.333 1.333s.6 1.333 1.333 1.333H4.08A11.992 11.992 0 0 0 14.666 27.92v1.413c0 .734.6 1.334 1.334 1.334.733 0 1.333-.6 1.333-1.334V27.92A11.992 11.992 0 0 0 27.92 17.333h1.413c.733 0 1.333-.6 1.333-1.333s-.6-1.333-1.333-1.333H27.92ZM16 25.333A9.327 9.327 0 0 1 6.666 16 9.326 9.326 0 0 1 16 6.667 9.326 9.326 0 0 1 25.333 16 9.327 9.327 0 0 1 16 25.333Z" fill="url(#a)"/>
  <defs>
    <linearGradient id="a" x1="16" y1="1.333" x2="16" y2="30.667" gradientUnits="userSpaceOnUse">
      <stop stop-color="#FFBF00"/>
      <stop offset="1" stop-color="#F2A50C"/>
    </linearGradient>
  </defs>
</svg>
