<svg width="32" height="32" fill="none" xmlns="http://www.w3.org/2000/svg">
  <path d="M24 10.667h-1.334V8A6.669 6.669 0 0 0 16 1.333 6.67 6.67 0 0 0 9.333 8v2.667H8a2.675 2.675 0 0 0-2.667 2.666v13.334c0 1.466 1.2 2.666 2.667 2.666h16c1.466 0 2.666-1.2 2.666-2.666V13.333c0-1.466-1.2-2.666-2.666-2.666Zm-8 12A2.675 2.675 0 0 1 13.333 20c0-1.467 1.2-2.667 2.667-2.667 1.466 0 2.666 1.2 2.666 2.667 0 1.467-1.2 2.667-2.666 2.667Zm-4-12V8c0-2.213 1.786-4 4-4 2.213 0 4 1.787 4 4v2.667h-8Z" fill="url(#a)"/>
  <defs>
    <linearGradient id="a" x1="16" y1="1.333" x2="16" y2="29.333" gradientUnits="userSpaceOnUse">
      <stop stop-color="#FFBF00"/>
      <stop offset="1" stop-color="#F2A50C"/>
    </linearGradient>
  </defs>
</svg>
