<svg width="20" height="20" fill="none" xmlns="http://www.w3.org/2000/svg">
  <path d="m16.024 12.717-2.117-.242a1.657 1.657 0 0 0-1.366.475l-1.534 1.533a12.538 12.538 0 0 1-5.49-5.491l1.54-1.542c.36-.358.535-.858.476-1.367l-.241-2.1a1.668 1.668 0 0 0-1.66-1.475h-1.44c-.942 0-1.725.784-1.667 1.725.442 7.117 6.133 12.8 13.242 13.242.94.058 1.724-.725 1.724-1.667v-1.441a1.652 1.652 0 0 0-1.466-1.65Z" fill="url(#a)"/>
  <defs>
    <linearGradient id="a" x1="10.007" y1="2.508" x2="10.007" y2="17.478" gradientUnits="userSpaceOnUse">
      <stop stop-color="#FFBF00"/>
      <stop offset="1" stop-color="#F2A50C"/>
    </linearGradient>
  </defs>
</svg>
