<svg width="32" height="32" fill="none" xmlns="http://www.w3.org/2000/svg">
  <path d="M31.33 8.248A4.021 4.021 0 0 0 28.502 5.4C26.007 4.727 16 4.727 16 4.727s-10.007 0-12.503.673A4.023 4.023 0 0 0 .67 8.248C0 10.76 0 16 0 16s0 5.24.67 7.752A4.02 4.02 0 0 0 3.498 26.6c2.494.673 12.501.673 12.501.673s10.007 0 12.503-.673a4.02 4.02 0 0 0 2.829-2.848C32 21.24 32 16 32 16s0-5.24-.67-7.752Zm-18.603 12.51v-9.515L21.09 16l-8.364 4.757Z" fill="url(#a)"/>
  <defs>
    <linearGradient id="a" x1="16" y1="4.727" x2="16" y2="27.273" gradientUnits="userSpaceOnUse">
      <stop stop-color="#FFBF00"/>
      <stop offset="1" stop-color="#F2A50C"/>
    </linearGradient>
  </defs>
</svg>
