<svg width="602" height="23" viewBox="0 0 602 23" fill="none" xmlns="http://www.w3.org/2000/svg">
<path d="M1 11C34.3333 -2.33333 67.6667 -2.33333 101 11C134.333 24.3333 167.667 24.3333 201 11C234.333 -2.33333 267.667 -2.33333 301 11C334.333 24.3333 367.667 24.3333 401 11C434.333 -2.33333 467.667 -2.33333 501 11C534.333 24.3333 567.667 24.3333 601 11" stroke="#EEEEEE"/>
<path d="M1 12C34.3333 -1.33333 67.6667 -1.33333 101 12C134.333 25.3333 167.667 25.3333 201 12C234.333 -1.33333 267.667 -1.33333 301 12C334.333 25.3333 367.667 25.3333 401 12C434.333 -1.33333 467.667 -1.33333 501 12C534.333 25.3333 567.667 25.3333 601 12" stroke="#fff"/>
</svg>
