<svg width="32" height="32" fill="none" xmlns="http://www.w3.org/2000/svg"><circle cx="16" cy="16" r="16" fill="#fff"/><path d="M23.583 12.833h-.888l-1.842-5.07a2.175 2.175 0 0 0-2.036-1.43h-1.734c-.595 0-1.083.488-1.083 1.084 0 .595.488 1.083 1.083 1.083h1.734l1.581 4.333h-5.21l-.39-1.083h.097c.596 0 1.083-.488 1.083-1.083 0-.596-.487-1.084-1.083-1.084h-3.228c-.596 0-1.084.488-1.084 1.084 0 .595.488 1.083 1.084 1.083h.812l1.972 5.417h-.726c-.477-2.416-2.502-4.204-5.037-4.323C5.654 12.693 3 15.217 3 18.25c0 3.033 2.383 5.417 5.417 5.417 2.665 0 4.82-1.831 5.308-4.334h4.55c.477 2.416 2.503 4.204 5.038 4.323 3.033.14 5.687-2.373 5.687-5.417 0-3.022-2.383-5.406-5.417-5.406ZM9.5 19.333h1.972c-.455 1.333-1.734 2.254-3.272 2.156-1.614-.097-2.957-1.462-3.033-3.087C5.09 16.506 6.543 15 8.417 15c1.44 0 2.621.9 3.055 2.167H9.5c-.596 0-1.083.487-1.083 1.083s.487 1.083 1.083 1.083Zm8.775-2.166h-1.517L15.968 15h3.282a5.128 5.128 0 0 0-.975 2.167Zm5.178 4.333c-1.668-.065-3.076-1.484-3.12-3.163a3.231 3.231 0 0 1 1.138-2.557l.671 1.842a1.08 1.08 0 0 0 1.387.65 1.08 1.08 0 0 0 .65-1.387l-.682-1.874.01-.011a3.215 3.215 0 0 1 3.326 3.25c0 1.863-1.495 3.315-3.38 3.25Z" fill="url(#a)"/><defs><linearGradient id="a" x1="16" y1="6.333" x2="16" y2="23.667" gradientUnits="userSpaceOnUse"><stop stop-color="#FFB60D"/><stop offset="1" stop-color="#E59317"/></linearGradient></defs></svg>