<svg width="140" height="38" fill="none" xmlns="http://www.w3.org/2000/svg">
  <path d="M11.394 22.737v5.086c0 2.543-1.12 3.46-2.9 3.46-1.78 0-2.899-.917-2.899-3.46V8.596c0-2.543 1.12-3.51 2.9-3.51 1.78 0 2.899.967 2.899 3.51v3.815h5.29V8.952C16.684 3.255 13.835 0 8.342 0 2.848 0 0 3.255 0 8.952v18.515c0 5.697 2.848 8.953 8.342 8.953 5.493 0 8.342-3.256 8.342-8.953v-4.73h-5.29ZM32.503.407 38.2 36.013h-5.646l-.967-6.46h-6.866l-.967 6.46h-5.137L24.314.407h8.189Zm-4.425 6.307-2.645 18.007h5.391L28.18 6.713h-.101l-.001.001ZM58.19 36.013h-5.697c-.305-.916-.509-1.476-.509-4.375v-5.595c0-3.306-1.119-4.527-3.662-4.527h-1.933v14.497h-5.595V.407h8.444c5.798 0 8.29 2.696 8.29 8.19v2.797c0 3.662-1.17 6.002-3.662 7.172 2.798 1.271 3.713 3.916 3.713 7.63v5.493c0 1.73.051 3.001.61 4.324h.001Zm-9.105-30.52h-2.696V16.43h2.187c2.086 0 3.357-.915 3.357-3.764v-3.51c0-2.543-.864-3.662-2.848-3.662v-.001ZM75.242.407l5.697 35.606h-5.646l-.966-6.46H67.46l-.966 6.46h-5.138L67.053.407h8.19-.001Zm-4.425 6.307-2.645 18.007h5.392L70.919 6.713h-.102v.001ZM86.115.407h-5.646l5.493 35.606h8.342L99.797.407H94.66L90.438 29.45h-.102L86.115.407Zm27.098 0 5.697 35.606h-5.646l-.966-6.46h-6.867l-.967 6.46h-5.137L105.024.407h8.189Zm-4.425 6.307-2.645 18.007h5.392L108.89 6.713h-.102v.001Zm25.464 29.299H140V.407h-4.985v21.312h-.102L129.267.407h-7.019v35.606h5.036v-25.79h.101l6.867 25.79Z" fill="#9C9C9C"/>
</svg>
