<svg width="165" height="38" fill="none" xmlns="http://www.w3.org/2000/svg">
  <g clip-path="url(#a)">
    <path d="M2.704 29.072c-.817 0-1.479-.252-1.986-.756C.24 27.812 0 27.154 0 26.342V1.772C0 .96.225.33.676-.118 1.155-.566 1.803-.79 2.62-.79h14.832c1.718 0 2.577.728 2.577 2.184 0 1.428-.859 2.142-2.577 2.142H5.367V11.6h11.24c1.718 0 2.577.728 2.577 2.184 0 1.428-.859 2.142-2.577 2.142H5.367v10.416c0 .812-.24 1.47-.719 1.974s-1.127.756-1.944.756Zm25.077 0c-.76 0-1.394-.21-1.901-.63-.48-.448-.718-1.078-.718-1.89V1.478c0-.812.239-1.428.718-1.848.507-.42 1.14-.63 1.901-.63.761 0 1.395.21 1.902.63.507.42.76 1.036.76 1.848v25.074c0 .812-.253 1.442-.76 1.89-.507.42-1.141.63-1.902.63Zm24.463-5.88c.478 0 .859.182 1.14.546.31.364.465.854.465 1.47 0 .868-.52 1.596-1.563 2.184-.958.532-2.043.966-3.254 1.302-1.211.308-2.366.462-3.465.462-3.324 0-5.958-.952-7.902-2.856s-2.915-4.508-2.915-7.812c0-2.1.422-3.962 1.267-5.586s2.029-2.884 3.55-3.78c1.55-.896 3.296-1.344 5.24-1.344 1.859 0 3.479.406 4.859 1.218 1.38.812 2.45 1.96 3.212 3.444.76 1.484 1.14 3.234 1.14 5.25 0 1.204-.535 1.806-1.605 1.806H39.947c.17 1.932.718 3.36 1.648 4.284.93.896 2.282 1.344 4.057 1.344.901 0 1.69-.112 2.366-.336a22.562 22.562 0 0 0 2.366-.924c.846-.448 1.465-.672 1.86-.672Zm-7.312-11.718c-1.436 0-2.591.448-3.465 1.344-.845.896-1.352 2.184-1.52 3.864h9.549c-.056-1.708-.479-2.996-1.268-3.864-.788-.896-1.887-1.344-3.296-1.344Zm30.91 13.482c.508.504.761 1.078.761 1.722 0 .616-.24 1.176-.718 1.68-.479.476-1.042.714-1.69.714-.705 0-1.31-.294-1.817-.882l-5.959-6.552-5.958 6.552c-.535.56-1.14.84-1.817.84-.62 0-1.169-.238-1.648-.714-.479-.476-.718-1.022-.718-1.638 0-.644.254-1.218.76-1.722l6.17-6.678-5.831-6.3c-.507-.504-.76-1.078-.76-1.722 0-.644.239-1.19.718-1.638.478-.476 1.028-.714 1.648-.714.676 0 1.281.28 1.817.84l5.62 6.132 5.62-6.132c.535-.56 1.14-.84 1.817-.84.647 0 1.197.238 1.648.714.479.448.718.994.718 1.638 0 .644-.254 1.218-.76 1.722l-5.832 6.3 6.212 6.678ZM99.22 13.532c1.719.476 3.043 1.344 3.972 2.604.958 1.26 1.437 2.8 1.437 4.62 0 2.52-.915 4.494-2.747 5.922-1.802 1.428-4.296 2.142-7.479 2.142H83.501c-.817 0-1.465-.224-1.944-.672-.45-.448-.676-1.078-.676-1.89V1.772c0-.812.226-1.442.676-1.89.48-.448 1.127-.672 1.944-.672H93.98c3.098 0 5.521.686 7.268 2.058 1.774 1.344 2.662 3.234 2.662 5.67 0 1.568-.423 2.926-1.268 4.074-.817 1.148-1.958 1.988-3.423 2.52h.001Zm-13.014-1.848h6.887c3.747 0 5.62-1.386 5.62-4.158 0-1.4-.465-2.436-1.394-3.108-.93-.672-2.338-1.008-4.226-1.008h-6.888v8.274Zm7.606 12.936c1.972 0 3.408-.35 4.31-1.05.901-.7 1.352-1.792 1.352-3.276 0-1.484-.465-2.59-1.395-3.318-.901-.728-2.324-1.092-4.267-1.092h-7.606v8.736h7.606Zm18.069 4.452c-.761 0-1.394-.21-1.901-.63-.479-.448-.719-1.078-.719-1.89V1.478c0-.812.24-1.428.719-1.848.507-.42 1.14-.63 1.901-.63.761 0 1.395.21 1.902.63.507.42.76 1.036.76 1.848v25.074c0 .812-.253 1.442-.76 1.89-.507.42-1.141.63-1.902.63Zm17.532.084c-2.112 0-3.972-.434-5.577-1.302-1.578-.868-2.803-2.114-3.677-3.738-.873-1.624-1.31-3.514-1.31-5.67s.437-4.032 1.31-5.628c.874-1.624 2.099-2.87 3.677-3.738 1.605-.868 3.465-1.302 5.577-1.302 2.113 0 3.958.434 5.536 1.302a8.745 8.745 0 0 1 3.676 3.738c.873 1.596 1.31 3.472 1.31 5.628s-.437 4.046-1.31 5.67a8.745 8.745 0 0 1-3.676 3.738c-1.578.868-3.423 1.302-5.536 1.302Zm-.042-4.074c1.718 0 3.028-.56 3.93-1.68.901-1.12 1.352-2.772 1.352-4.956 0-2.156-.451-3.794-1.352-4.914-.902-1.148-2.197-1.722-3.888-1.722-1.69 0-3 .574-3.929 1.722-.902 1.12-1.353 2.758-1.353 4.914 0 2.184.451 3.836 1.353 4.956.901 1.12 2.197 1.68 3.887 1.68Zm32.419-17.22c.788 0 1.422.224 1.901.672.479.448.718 1.05.718 1.806v16.59c0 3.22-.901 5.656-2.704 7.308-1.803 1.652-4.465 2.478-7.986 2.478-3.071 0-5.635-.574-7.691-1.722-1.042-.616-1.563-1.358-1.563-2.226 0-.616.14-1.106.422-1.47.31-.364.704-.546 1.183-.546.254 0 .564.056.93.168.366.14.746.294 1.141.462 1.014.42 1.915.742 2.704.966.817.224 1.747.336 2.789.336 3.69 0 5.536-1.792 5.536-5.376V24.62c-.62 1.148-1.522 2.044-2.705 2.688-1.183.616-2.535.924-4.056.924-1.803 0-3.409-.42-4.818-1.26-1.38-.868-2.464-2.072-3.253-3.612-.789-1.54-1.183-3.318-1.183-5.334 0-2.016.38-3.794 1.141-5.334.788-1.568 1.887-2.772 3.295-3.612 1.409-.868 3.015-1.302 4.818-1.302 1.521 0 2.873.322 4.056.966a6.309 6.309 0 0 1 2.705 2.646v-1.092c0-.728.239-1.316.718-1.764.479-.448 1.113-.672 1.902-.672Zm-7.987 16.296c1.69 0 3-.546 3.93-1.638.958-1.092 1.437-2.59 1.437-4.494 0-1.932-.479-3.444-1.437-4.536-.93-1.092-2.24-1.638-3.93-1.638-1.662 0-2.972.546-3.93 1.638-.957 1.092-1.436 2.604-1.436 4.536 0 1.904.479 3.402 1.436 4.494.958 1.092 2.268 1.638 3.93 1.638Z" fill="#9C9C9C"/>
  </g>
  <defs>
    <clipPath id="a">
      <path fill="#fff" d="M0 0h165v38H0z"/>
    </clipPath>
  </defs>
</svg>
