<svg width="149" height="36" fill="none" xmlns="http://www.w3.org/2000/svg">
  <path d="M48.953 35.52V0h-9.037L21.02 27.408l-3.19-3.984c5.703-.864 8.892-5.856 8.892-11.184 0-5.088-2.802-9.36-6.572-10.992C18.267.432 15.464 0 11.743 0H0v35.52h8.747V24.048h.096l8.264 11.472h9.23l3.14-5.136H39.82v5.136h9.133ZM8.746 17.856V7.968h3.48c3.43 0 5.75 1.728 5.75 4.8 0 3.264-2.175 5.088-5.8 5.088h-3.43Zm31.072 5.328h-5.992l5.896-9.84h.096v9.84ZM85.604 35.52V0h-8.746l.386 22.464L63.327 0H55.45v35.52h8.747l-.242-21.696L77.68 35.52h7.925Zm26.376 0v-7.968h-11.115v-6.096h10.776v-7.968h-10.776v-5.52h11.115V0H92.118v35.52h19.862Zm36.305 0-12.612-17.808L147.512 0h-9.568l-10.1 15.984h-.097V0h-9.133v35.52h9.133V20.16h.097l9.762 15.36h10.679Z" fill="#9C9C9C"/>
</svg>
