<svg width="200" height="49" fill="none" xmlns="http://www.w3.org/2000/svg">
  <g clip-path="url(#a)" fill="#9C9C9C">
    <path d="M54.381 44.014c-3.32 0-5.865-.568-7.636-1.704-1.74-1.168-2.609-2.873-2.609-5.114 0-1.136.38-2.068 1.138-2.794.791-.757 1.803-1.136 3.036-1.136.727.032 1.28.22 1.66.568.38.316.57.616.57.9 0 .031-.159.142-.475.331-.316.19-.6.474-.854.852-.253.38-.38.9-.38 1.563 0 1.484.444 2.636 1.33 3.457.916.79 2.323 1.183 4.22 1.183 1.297 0 2.435-.252 3.416-.757.98-.505 1.723-1.168 2.23-1.989.536-.852.805-1.736.805-2.652 0-1.136-.332-2.114-.996-2.935a7.801 7.801 0 0 0-2.37-2.036c-.95-.568-2.247-1.216-3.89-1.942-1.898-.852-3.43-1.625-4.6-2.32a9.897 9.897 0 0 1-2.99-2.746c-.822-1.168-1.233-2.604-1.233-4.309 0-2.746.932-4.798 2.798-6.155 1.898-1.358 4.38-2.036 7.447-2.036 2.403 0 4.49.505 6.261 1.515 1.803 1.01 2.704 2.494 2.704 4.45 0 1.137-.396 2.084-1.186 2.842-.759.726-1.755 1.09-2.988 1.09-.728-.033-1.28-.207-1.66-.522-.38-.347-.57-.663-.57-.947 0-.032.206-.142.617-.332a2.995 2.995 0 0 0 1.138-.852c.348-.379.522-.9.522-1.562 0-1.168-.458-2.084-1.375-2.747-.886-.663-2.024-.994-3.416-.994-1.928 0-3.399.458-4.41 1.373-.98.884-1.47 1.99-1.47 3.315 0 1.104.3 2.036.9 2.793.6.726 1.565 1.452 2.893 2.178a61.228 61.228 0 0 0 3.51 1.705c2.024.915 3.621 1.752 4.791 2.51a9.616 9.616 0 0 1 2.988 2.983c.822 1.23 1.234 2.762 1.234 4.592 0 1.58-.506 3.015-1.518 4.31-.98 1.262-2.325 2.256-4.032 2.982-1.676.726-3.526 1.09-5.55 1.09Zm24.013-.378c-2.15 0-3.858-.648-5.123-1.942-1.265-1.294-1.897-2.999-1.897-5.114v-8.76c0-.82-.032-1.42-.095-1.799-.03-.378-.22-.71-.57-.994-.347-.284-.932-.426-1.754-.426-.38 0-.664-.047-.854-.142-.19-.126-.284-.395-.284-.805 0-.19.063-.363.19-.52.126-.19.316-.3.57-.332 1.991-.285 3.7-.695 5.121-1.232.443-.157.806-.252 1.091-.284h.142c.506 0 .76.3.76.9v14.347c0 1.452.458 2.573 1.375 3.362a4.844 4.844 0 0 0 3.178 1.136c1.486 0 2.75-.363 3.794-1.089s1.74-1.452 2.087-2.178v-9.943c0-.82-.03-1.42-.094-1.8-.032-.378-.222-.71-.57-.994-.348-.284-.933-.426-1.755-.426-.38 0-.664-.047-.853-.142-.19-.126-.285-.395-.285-.805 0-.19.063-.363.19-.52.126-.19.316-.3.57-.332 1.991-.285 3.7-.695 5.122-1.232.442-.157.806-.252 1.09-.284h.143c.506 0 .76.3.76.9V38.57c0 1.863 1.248 2.794 3.746 2.794.537 0 .806.3.806.9 0 .441-.269.71-.806.804l-7.637.521c-.22 0-.348-.079-.38-.236-.03-.127-.047-.363-.047-.71V39.99h-.094a57.319 57.319 0 0 1-2.23 1.988c-.569.442-1.312.821-2.23 1.137-.885.347-1.944.52-3.177.52v.001Zm19.196-.426a.72.72 0 0 1-.57-.285 1.167 1.167 0 0 1-.19-.662c.032-.41.127-.648.285-.71.16-.095.443-.143.854-.143.822 0 1.407-.142 1.755-.426.348-.284.538-.616.569-.994.064-.38.095-.979.095-1.8V27.347c0-.82-.031-1.42-.095-1.8-.031-.378-.221-.71-.569-.993-.348-.284-.933-.427-1.755-.427-.38 0-.664-.047-.853-.142-.19-.126-.285-.394-.285-.805 0-.189.063-.363.19-.52.126-.19.316-.3.57-.332 2.054-.316 3.746-.726 5.074-1.23.538-.159.901-.254 1.091-.285h.142c.506 0 .759.3.759.9v2.935h.142c1.107-1.105 2.23-1.973 3.368-2.604 1.139-.663 2.166-.994 3.083-.994 1.044 0 1.866.394 2.467 1.183.632.758.948 1.642.948 2.652a3.76 3.76 0 0 1-.806 2.367c-.538.695-1.281 1.042-2.229 1.042a2.441 2.441 0 0 1-1.186-.284c-.316-.19-.49-.347-.522-.473.032-.063.19-.253.474-.569.285-.347.427-.74.427-1.183 0-.569-.158-1.026-.474-1.373-.285-.348-.68-.52-1.186-.52-.537 0-1.217.267-2.039.804-.823.505-1.629 1.152-2.419 1.941V38.19c0 .821.031 1.42.094 1.8.064.378.269.71.617.994.348.284.933.426 1.755.426h.285c.253 0 .442.048.569.142.126.095.205.332.237.71 0 .253-.063.474-.19.663-.126.19-.316.285-.569.285a97.409 97.409 0 0 0-4.98-.143 99.51 99.51 0 0 0-4.933.142v.001Zm73.667.426c-2.15 0-4.063-.506-5.739-1.516-1.676-1.04-2.988-2.399-3.937-4.072a11.238 11.238 0 0 1-1.375-5.398c0-2.367.553-4.419 1.66-6.155 1.107-1.768 2.514-3.11 4.221-4.025 1.708-.947 3.431-1.42 5.17-1.42 2.151 0 4.064.52 5.74 1.562a10.467 10.467 0 0 1 3.889 4.072 10.664 10.664 0 0 1 1.423 5.35c0 2.368-.569 4.436-1.707 6.204-1.107 1.736-2.514 3.077-4.222 4.024-1.707.916-3.415 1.374-5.123 1.374Zm0-1.752c2.151 0 3.716-.916 4.696-2.747 1.012-1.83 1.518-4.198 1.518-7.102 0-2.715-.522-4.924-1.565-6.63-1.012-1.735-2.562-2.603-4.649-2.603-2.181 0-3.762.9-4.743 2.7-.98 1.798-1.47 4.15-1.47 7.054 0 2.714.506 4.956 1.518 6.723 1.012 1.737 2.577 2.605 4.695 2.605Zm23.004 1.988c-1.55 0-2.878-.568-3.985-1.704-1.106-1.137-1.66-2.762-1.66-4.877v-13.92l-2.751.094a.58.58 0 0 1-.474-.237 1.091 1.091 0 0 1-.19-.616c0-.284.048-.52.142-.71.127-.22.301-.347.522-.379 1.107-.22 1.961-.568 2.562-1.04.632-.507 1.091-1.043 1.375-1.61.285-.6.633-1.5 1.044-2.7.158-.41.506-.616 1.043-.616.221 0 .443.063.664.19.221.094.332.252.332.473l-.332 5.398 5.55-.332h.095c.411 0 .616.3.616.9 0 .347-.063.68-.19.994-.094.285-.221.427-.379.427l-5.312-.142V37.86c0 1.042.205 1.91.616 2.604.443.695 1.154 1.042 2.135 1.042.98 0 1.85-.174 2.608-.52.412-.159.664-.238.759-.238.222 0 .396.095.522.284.127.158.253.38.38.663.034.075.05.155.047.237 0 .126-.095.268-.285.426-.917.6-1.786.995-2.608 1.184-.791.22-1.74.331-2.846.331Zm-76.664-.947c.126.19.316.284.569.284a94.72 94.72 0 0 1 4.933-.142c2.119 0 4.095.048 5.929.142a.6.6 0 0 0 .522-.284c.126-.19.189-.41.189-.663-.031-.378-.11-.615-.237-.71-.095-.094-.284-.142-.569-.142h-.285c-1.043 0-1.786-.079-2.229-.237-.443-.157-.743-.442-.901-.852-.158-.442-.237-1.152-.237-2.13V23.463h5.028a.718.718 0 0 0 .569-.284c.158-.189.237-.41.237-.663-.032-.378-.127-.615-.285-.71-.126-.126-.332-.19-.616-.19h-4.933v-2.84c0-1.515.063-2.84.189-3.978a7.666 7.666 0 0 1 1.091-3.22c.601-.978 1.534-1.467 2.799-1.467.145 0 .286.008.422.025a8.012 8.012 0 0 1 .104-1.585 7.866 7.866 0 0 0-.194-.003c-2.783.063-4.949 1.12-6.498 3.173-1.518 2.02-2.277 4.656-2.277 7.907v1.99h-2.846c-.411 0-.696.046-.854.141-.158.063-.253.316-.284.757 0 .253.063.474.189.663.159.19.364.285.617.285h3.178V38.19c0 .853-.032 1.468-.095 1.847-.031.347-.221.663-.569.947-.348.284-.933.426-1.755.426-.411 0-.696.048-.854.142-.126.063-.205.3-.237.71 0 .253.063.474.19.663Z"/>
    <path fill-rule="evenodd" clip-rule="evenodd" d="M142.952 9.865a5.255 5.255 0 0 1-1.545 3.721 5.275 5.275 0 0 1-7.449 0 5.269 5.269 0 0 1-1.546-3.721 5.26 5.26 0 0 1 1.545-3.722 5.277 5.277 0 0 1 7.45 0 5.255 5.255 0 0 1 1.545 3.722Zm-5.27 2.63a2.634 2.634 0 0 0 2.635-2.63 2.62 2.62 0 0 0-.772-1.862 2.632 2.632 0 0 0-1.863-.769 2.636 2.636 0 0 0-2.635 2.63 2.635 2.635 0 0 0 2.635 2.631Zm-2.31 4.919v25.37c0 .283.08.504.238.662.158.19.379.284.664.284.284 0 .521-.126.711-.378.19-.221.364-.553.522-.995.158-.442.3-.789.427-1.042h.237c2.055 1.547 4.49 2.32 7.304 2.32 1.898 0 3.684-.505 5.36-1.515 1.676-1.01 3.004-2.383 3.985-4.12 1.011-1.767 1.517-3.708 1.517-5.823 0-2.147-.442-4.056-1.328-5.73-.853-1.704-2.039-3.03-3.557-3.977-1.518-.947-3.21-1.42-5.075-1.42-1.139 0-2.293.236-3.463.71-1.138.442-2.166 1.12-3.083 2.036h-.142V17.5a7.981 7.981 0 0 1-4.317-.086Zm14.325 22.007c-1.17 1.737-2.72 2.605-4.648 2.605-1.012 0-1.913-.221-2.704-.663-.759-.442-1.376-.963-1.85-1.563-.443-.631-.711-1.2-.806-1.704v-12.5c1.359-1.453 3.035-2.179 5.028-2.179 2.245 0 3.936.884 5.075 2.652 1.138 1.736 1.707 3.835 1.707 6.297 0 2.936-.6 5.288-1.802 7.055ZM12.7.367a1.98 1.98 0 0 1 2.298 0c8.56 6.104 12.44 13.421 12.685 23.92.113 5.013-.37 9.603-1.84 13.568-1.51 3.968-4.194 7.633-8.144 10.729a1.98 1.98 0 0 1-1.76.34c-1.21-.347-1.416-1.779-2.09-2.671-.674.892-.878 2.323-2.09 2.67a1.98 1.98 0 0 1-1.759-.34c-3.95-3.095-6.634-6.76-8.143-10.728C.387 33.89-.097 29.3.017 24.287.26 13.788 4.14 6.47 12.7.367Zm4.426 43.695c2.472-2.27 3.962-4.745 5.014-7.592 1.325-3.48 1.707-7.326 1.592-12.091-.19-8.187-2.11-13.514-7.923-18.46v14.468c2.273.584 3.293 2.81 3.293 5.26 0 2.452-1.02 4.678-3.293 5.262v11.837s1.056.973 1.317 1.316Zm-6.588 0c-2.472-2.27-3.927-4.745-4.98-7.592-1.324-3.48-1.706-7.326-1.59-12.091.19-8.17 2.1-13.52 7.888-18.46v14.468c-2.273.584-3.294 2.81-3.294 5.26 0 2.452 1.02 4.678 3.294 5.262v11.837s-1.066.985-1.318 1.316Zm3.294-21.045a2.633 2.633 0 0 0-2.635 2.63 2.633 2.633 0 0 0 2.635 2.631 2.633 2.633 0 0 0 2.635-2.63c0-1.453-1.18-2.63-2.635-2.63v-.001Z"/>
  </g>
  <defs>
    <clipPath id="a">
      <path fill="#fff" d="M0 0h200v49H0z"/>
    </clipPath>
  </defs>
</svg>
