<svg width="52" height="52" fill="none" xmlns="http://www.w3.org/2000/svg">
  <path d="M4 14a2 2 0 1 0-4 0 2 2 0 0 0 4 0ZM4 2a2 2 0 1 0-4 0 2 2 0 0 0 4 0Zm12 36a2 2 0 1 0-4 0 2 2 0 0 0 4 0Zm0-12a2 2 0 1 0-4 0 2 2 0 0 0 4 0Zm0-12a2 2 0 1 0-4 0 2 2 0 0 0 4 0Zm0-12a2 2 0 1 0-4 0 2 2 0 0 0 4 0Zm12 36a2 2 0 1 0-4 0 2 2 0 0 0 4 0Zm0-12a2 2 0 1 0-4 0 2 2 0 0 0 4 0Zm0-12a2 2 0 1 0-4 0 2 2 0 0 0 4 0Zm0-12a2 2 0 1 0-4 0 2 2 0 0 0 4 0Zm12 48a2 2 0 1 0-4 0 2 2 0 0 0 4 0Zm0-12a2 2 0 1 0-4 0 2 2 0 0 0 4 0Zm0-12a2 2 0 1 0-4 0 2 2 0 0 0 4 0Zm0-12a2 2 0 1 0-4 0 2 2 0 0 0 4 0Zm0-12a2 2 0 1 0-4 0 2 2 0 0 0 4 0Zm12 48a2 2 0 1 0-4 0 2 2 0 0 0 4 0Zm0-12a2 2 0 1 0-4 0 2 2 0 0 0 4 0Zm0-12a2 2 0 1 0-4 0 2 2 0 0 0 4 0Zm0-12a2 2 0 1 0-4 0 2 2 0 0 0 4 0Zm0-12a2 2 0 1 0-4 0 2 2 0 0 0 4 0Z" fill="rgba(127,127,127,.3)"/>
</svg>
