<svg width="52" height="52" fill="none" xmlns="http://www.w3.org/2000/svg">
  <path d="M14 48a2 2 0 1 0 0 4 2 2 0 0 0 0-4ZM2 48a2 2 0 1 0 0 4 2 2 0 0 0 0-4Zm36-12a2 2 0 1 0 0 4 2 2 0 0 0 0-4Zm-12 0a2 2 0 1 0 0 4 2 2 0 0 0 0-4Zm-12 0a2 2 0 1 0 0 4 2 2 0 0 0 0-4ZM2 36a2 2 0 1 0 0 4 2 2 0 0 0 0-4Zm36-12a2 2 0 1 0 0 4 2 2 0 0 0 0-4Zm-12 0a2 2 0 1 0 0 4 2 2 0 0 0 0-4Zm-12 0a2 2 0 1 0 0 4 2 2 0 0 0 0-4ZM2 24a2 2 0 1 0 0 4 2 2 0 0 0 0-4Zm48-12a2 2 0 1 0 0 4 2 2 0 0 0 0-4Zm-12 0a2 2 0 1 0 0 4 2 2 0 0 0 0-4Zm-12 0a2 2 0 1 0 0 4 2 2 0 0 0 0-4Zm-12 0a2 2 0 1 0 0 4 2 2 0 0 0 0-4ZM2 12a2 2 0 1 0 0 4 2 2 0 0 0 0-4ZM50 0a2 2 0 1 0 0 4 2 2 0 0 0 0-4ZM38 0a2 2 0 1 0 0 4 2 2 0 0 0 0-4ZM26 0a2 2 0 1 0 0 4 2 2 0 0 0 0-4ZM14 0a2 2 0 1 0 0 4 2 2 0 0 0 0-4ZM2 0a2 2 0 1 0 0 4 2 2 0 0 0 0-4Z" fill="#E4A30B"/>
</svg>
